<svg height="35px" width="33px" version="1.1" id="Layer_1" xmlns="http://www.w3.org/2000/svg" xmlns:xlink="http://www.w3.org/1999/xlink" viewBox="0 0 511.995 511.995" xml:space="preserve" fill="#000000"><g id="SVGRepo_bgCarrier" stroke-width="0"></g><g id="SVGRepo_tracerCarrier" stroke-linecap="round" stroke-linejoin="round"></g><g id="SVGRepo_iconCarrier"> <g> <path style="fill:#000000;" d="M182.223,107.446c-7.658,0-13.866-6.208-13.866-13.866V52.74c0-7.658,6.208-13.866,13.866-13.866 s13.866,6.208,13.866,13.866v40.842C196.089,101.238,189.881,107.446,182.223,107.446z"></path> <path style="fill:#000000;" d="M272.39,144.795c-3.55,0-7.097-1.353-9.805-4.061c-5.415-5.415-5.415-14.195,0-19.611l8.718-8.718 c5.416-5.415,14.194-5.415,19.611,0c5.415,5.415,5.415,14.195,0,19.611l-8.718,8.718 C279.487,143.441,275.94,144.795,272.39,144.795z"></path> <path style="fill:#000000;" d="M83.338,333.847c-3.548,0-7.097-1.353-9.805-4.061c-5.415-5.415-5.416-14.195,0-19.61l8.718-8.719 c5.415-5.415,14.195-5.416,19.61,0s5.416,14.195,0,19.61l-8.718,8.719C90.436,332.493,86.886,333.847,83.338,333.847z"></path> <path style="fill:#000000;" d="M92.056,144.795c-3.548,0-7.098-1.353-9.805-4.061l-8.718-8.718c-5.415-5.415-5.415-14.195,0-19.611 s14.195-5.415,19.611,0l8.718,8.718c5.415,5.415,5.415,14.195,0,19.611C99.154,143.441,95.604,144.795,92.056,144.795z"></path> <path style="fill:#000000;" d="M54.708,234.962H13.866C6.208,234.962,0,228.754,0,221.095c0-7.658,6.208-13.866,13.866-13.866 h40.842c7.658,0,13.866,6.208,13.866,13.866C68.575,228.754,62.367,234.962,54.708,234.962z"></path> <path style="fill:#000000;" d="M311.447,473.116H165.819c-41.455,0-75.182-33.727-75.182-75.183 c0-7.658,6.208-13.866,13.866-13.866s13.866,6.208,13.866,13.866c0,26.164,21.286,47.451,47.449,47.451h145.627 c7.657,0,13.866,6.208,13.866,13.866S319.104,473.116,311.447,473.116z"></path> </g> <path style="fill:#e7b623;" d="M149.337,303.19c0.951-2.934,2.049-5.799,3.282-8.594c0.806-1.826,1.669-3.619,2.589-5.38 c0.911-1.746,1.858-3.471,2.877-5.149c3.806-6.265,8.348-12.035,13.502-17.189c16.495-16.495,39.285-26.7,64.458-26.7 c1.559,0,3.109,0.04,4.648,0.118c0.824,0.042,1.635,0.121,2.453,0.184c0.707,0.054,1.419,0.09,2.12,0.161 c1.141,0.115,2.271,0.27,3.4,0.427c0.362,0.05,0.731,0.085,1.091,0.139c1.324,0.2,2.635,0.438,3.938,0.695 c0.158,0.031,0.319,0.053,0.476,0.085c1.43,0.288,2.847,0.614,4.253,0.969c0.028,0.007,0.054,0.012,0.082,0.019 c2.949,0.747,5.842,1.636,8.669,2.664c8.614-29.919,1.147-63.491-22.427-87.065c-34.531-34.531-90.517-34.531-125.048,0 s-34.531,90.517,0,125.048C128.435,292.356,138.548,298.873,149.337,303.19z"></path> <path style="fill:#000000;" d="M471.051,331.003c3.594-11.282,5.409-23.018,5.409-35.043c0-63.882-51.972-115.855-115.856-115.855 c-28.759,0-55.942,10.645-76.807,29.117c-2.636-22.509-12.702-43.909-29.247-60.454c-19.32-19.32-45.007-29.96-72.33-29.96 s-53.01,10.64-72.329,29.96s-29.96,45.007-29.96,72.329s10.64,53.01,29.96,72.33c6.928,6.928,14.696,12.72,23.161,17.356 c-1.324,6.65-2.033,13.52-2.033,20.554c0,3.303,0.166,6.711,0.495,10.132c0.731,7.624,7.507,13.208,15.128,12.478 c7.624-0.731,13.209-7.504,12.478-15.128c-0.244-2.543-0.367-5.06-0.367-7.482c0-8.751,1.482-17.157,4.175-25.005 c0.236-0.689,0.473-1.378,0.729-2.066c0.207-0.552,0.43-1.097,0.649-1.642c0.25-0.623,0.499-1.245,0.765-1.859 c10.874-25.147,34.723-43.422,63.064-46.316c0.079-0.008,0.159-0.011,0.238-0.019c1.201-0.119,2.409-0.214,3.625-0.276 c0.553-0.028,1.111-0.029,1.665-0.046c0.763-0.024,1.524-0.057,2.292-0.058c1.302,0,2.61,0.032,3.921,0.096 c0.031,0.001,0.062,0.001,0.094,0.003c0.245,0.012,0.487,0.039,0.732,0.054c1.065,0.064,2.126,0.136,3.178,0.243 c0.111,0.011,0.22,0.029,0.331,0.04c0.39,0.043,0.77,0.096,1.155,0.146c0.796,0.096,1.595,0.183,2.384,0.304 c0.076,0.011,0.151,0.028,0.227,0.039c0.162,0.025,0.32,0.058,0.483,0.086c1.04,0.169,2.077,0.345,3.102,0.556 c0.101,0.021,0.201,0.047,0.302,0.068c1.155,0.241,2.303,0.503,3.44,0.796c0.079,0.021,0.158,0.046,0.237,0.065 c1.155,0.301,2.303,0.625,3.437,0.978c0.057,0.018,0.112,0.039,0.168,0.055c31.367,9.846,54.185,39.188,54.185,73.761 c0,7.658,6.209,13.866,13.866,13.866s13.866-6.208,13.866-13.866c0-37.766-20.045-70.929-50.046-89.438 c16.551-21.288,42.122-34.058,69.585-34.058c48.592,0,88.123,39.531,88.123,88.122c0,12.905-2.746,25.366-8.162,37.036 c-1.717,3.698-1.718,7.963-0.006,11.663c1.712,3.7,4.967,6.458,8.897,7.54c20.494,5.651,34.809,24.457,34.809,45.733 c0,26.164-21.286,47.451-47.451,47.451H394.43c-7.657,0-13.866,6.208-13.866,13.866s6.209,13.866,13.866,13.866h42.382 c41.455,0,75.183-33.727,75.183-75.183C512,369.396,495.746,343.663,471.051,331.003z M107.666,221.095 c0-19.915,7.755-38.637,21.838-52.718c14.081-14.083,32.804-21.838,52.718-21.838s38.637,7.755,52.718,21.838 c15.905,15.903,23.602,37.965,21.482,59.925c-0.044-0.008-0.09-0.015-0.136-0.024c-0.905-0.178-1.812-0.347-2.723-0.501 c-0.502-0.086-0.987-0.165-1.46-0.238c-0.05-0.008-0.1-0.015-0.15-0.024c-0.037-0.006-0.078-0.012-0.115-0.018 c-0.089-0.014-0.18-0.024-0.27-0.036c-1.577-0.234-3.157-0.438-4.748-0.6c-0.044-0.004-0.09-0.008-0.135-0.012 c-0.008-0.001-0.015-0.003-0.024-0.003c-0.112-0.011-0.225-0.017-0.337-0.028c-1.396-0.136-2.798-0.24-4.204-0.32 c-0.105-0.007-0.211-0.017-0.318-0.022c-0.136-0.007-0.269-0.022-0.405-0.029c-0.003,0-0.004,0-0.007,0 c-0.173-0.008-0.348-0.006-0.523-0.014c-1.604-0.072-3.211-0.122-4.827-0.122c-1.792,0-3.575,0.047-5.351,0.136 c-0.255,0.012-0.506,0.042-0.76,0.055c-1.538,0.087-3.073,0.197-4.597,0.351c-0.049,0.006-0.097,0.012-0.146,0.018 c-23.95,2.443-46.153,12.946-63.408,30.201c-5.953,5.954-11.185,12.614-15.548,19.797c-1.07,1.762-2.124,3.644-3.318,5.929 c-0.219,0.419-0.435,0.84-0.649,1.265c-4.586-2.915-8.852-6.338-12.763-10.249C115.422,259.732,107.666,241.01,107.666,221.095z"></path> </g></svg>