<svg height="35px" width="30px" version="1.1" id="Layer_1" xmlns="http://www.w3.org/2000/svg" xmlns:xlink="http://www.w3.org/1999/xlink" viewBox="0 0 512 512" xml:space="preserve" fill="#000000"><g id="SVGRepo_bgCarrier" stroke-width="0"></g><g id="SVGRepo_tracerCarrier" stroke-linecap="round" stroke-linejoin="round"></g><g id="SVGRepo_iconCarrier"> <circle style="fill:#ffffff;" cx="256" cy="381.47" r="59.943"></circle> <g> <path style="fill:#172633;" d="M256,455.991c-41.09,0-74.52-33.43-74.52-74.52s33.43-74.52,74.52-74.52s74.52,33.43,74.52,74.52 S297.09,455.991,256,455.991z M256,336.107c-25.014,0-45.364,20.35-45.364,45.364s20.35,45.364,45.364,45.364 s45.364-20.35,45.364-45.364C301.364,356.458,281.014,336.107,256,336.107z"></path> <path style="fill:#172633;" d="M371.339,320.336c-3.777-7.108-12.602-9.808-19.713-6.032c-7.11,3.779-9.809,12.604-6.032,19.713 c7.706,14.499,11.779,30.909,11.779,47.455c0,27.531-10.849,53.289-30.549,72.528c-19.691,19.232-45.733,29.447-73.283,28.814 c-54.612-1.29-98.984-46.815-98.911-101.482c0.051-38.57,21.546-73.269,56.093-90.557c4.937-2.469,8.054-7.516,8.054-13.037V58.856 c0-16.377,13.324-29.701,29.701-29.701h15.044c16.377,0,29.701,13.324,29.701,29.701v59.697h-28.097 c-8.051,0-14.578,6.526-14.578,14.578s6.526,14.578,14.578,14.578h28.098v22.587h-28.098c-8.051,0-14.578,6.526-14.578,14.578 s6.526,14.578,14.578,14.578h28.098v22.587h-28.098c-8.051,0-14.578,6.526-14.578,14.578c0,8.051,6.526,14.578,14.578,14.578 h28.098v17.46c0,8.051,6.526,14.578,14.578,14.578s14.578-6.526,14.578-14.578v-17.46h35.084c8.051,0,14.578-6.526,14.578-14.578 c0-8.051-6.526-14.578-14.578-14.578h-35.084V147.71h35.084c8.051,0,14.578-6.526,14.578-14.578s-6.526-14.578-14.578-14.578 h-35.084V58.856C322.378,26.403,295.975,0,263.522,0h-15.044c-32.453,0-58.856,26.403-58.856,58.856v210.229 c-39.733,23.415-64.086,65.616-64.149,112.21c-0.095,70.388,57.047,129.007,127.377,130.667c1.066,0.026,2.125,0.038,3.187,0.038 c34.295-0.001,66.563-13.12,91.159-37.141c25.362-24.773,39.332-57.938,39.332-93.388 C386.527,360.172,381.275,339.032,371.339,320.336z"></path> </g> </g></svg>